<svg width="37" height="36" viewBox="0 0 37 36" fill="none" xmlns="http://www.w3.org/2000/svg">
<g id="Logomark">
<path id="Exclude" d="M18.2875 0.583374C8.18755 0.583374 0 8.38108 0 18C0 27.619 8.18755 35.4167 18.2875 35.4167C27.349 35.4167 34.8711 29.1401 36.3221 20.9028H36.1909C34.8375 25.9108 30.0641 29.6112 24.3833 29.6112C17.6501 29.6112 12.1917 24.4127 12.1917 18C12.1917 11.5874 17.6501 6.38893 24.3833 6.38893C30.0641 6.38893 34.8375 10.0893 36.1909 15.0973H36.3221C34.8711 6.86001 27.349 0.583374 18.2875 0.583374Z" fill="#98A2B3"/>
<path id="Exclude_2" d="M0 18C0 8.38108 8.18759 0.583374 18.2875 0.583374C27.3489 0.583374 34.8711 6.86001 36.3221 15.0973H23.9992C22.6458 10.0893 17.8725 6.38893 12.1917 6.38893C5.45839 6.38893 0 11.5874 0 18Z" fill="#667085"/>
<path id="Exclude_3" d="M0 18.0001C0 27.619 8.18759 35.4167 18.2875 35.4167C27.3489 35.4167 34.8711 29.1401 36.3221 20.9029H23.9992C22.6458 25.9108 17.8725 29.6112 12.1917 29.6112C5.45839 29.6112 0 24.4127 0 18.0001Z" fill="#667085"/>
</g>
</svg>
