<svg width="37" height="36" viewBox="0 0 37 36" fill="none" xmlns="http://www.w3.org/2000/svg">
<g id="Logomark">
<path id="Intersect" d="M13.1384 25.4643C20.3944 25.4643 26.2765 19.8945 26.2765 13.0239C26.2765 12.2452 26.201 11.4832 26.0564 10.7442C25.276 10.6073 24.4713 10.5358 23.6489 10.5358C16.3929 10.5358 10.5107 16.1056 10.5107 22.9762C10.5107 23.7549 10.5863 24.5169 10.7308 25.2559C11.5113 25.3928 12.316 25.4643 13.1384 25.4643Z" fill="#667085"/>
<path id="Circle" fill-rule="evenodd" clip-rule="evenodd" d="M10.7306 25.2559C4.62443 24.1851 0 19.1159 0 13.0239C0 6.15317 5.88216 0.583374 13.1382 0.583374C19.5718 0.583374 24.9254 4.96222 26.0563 10.7442C25.2758 10.6073 24.4711 10.5358 23.6487 10.5358C16.3927 10.5358 10.5105 16.1055 10.5105 22.9762C10.5105 23.7549 10.5861 24.5169 10.7306 25.2559Z" fill="#667085"/>
<path id="Circle_2" fill-rule="evenodd" clip-rule="evenodd" d="M13.138 25.4643C20.394 25.4643 26.2762 19.8945 26.2762 13.0238C26.2762 12.2452 26.2006 11.4832 26.0561 10.7441C32.1623 11.8149 36.7867 16.8842 36.7867 22.9762C36.7867 29.8469 30.9046 35.4167 23.6485 35.4167C17.2149 35.4167 11.8613 31.0378 10.7305 25.2559C11.511 25.3928 12.3157 25.4643 13.138 25.4643Z" fill="#98A2B3"/>
</g>
</svg>
