<svg width="54" height="54" viewBox="0 0 54 54" fill="none" xmlns="http://www.w3.org/2000/svg">
<g id="connect">
<path id="Vector" d="M45.9844 4.85156V8.5957C45.9844 10.4597 44.4734 11.9707 42.6094 11.9707H38.2852C36.4211 11.9707 34.9102 13.4817 34.9102 15.3457V24.627M45.9844 49.9395V46.1953C45.9844 44.3313 44.4734 42.8203 42.6094 42.8203H38.2852C36.4211 42.8203 34.9102 41.3093 34.9102 39.4453V30.1641M49.1484 27H34.1192M8.01562 4.85156V8.5957C8.01562 10.4597 9.52666 11.9707 11.3906 11.9707H15.7148C17.5789 11.9707 19.0898 13.4817 19.0898 15.3457V24.627M8.01562 49.9395V46.1953C8.01562 44.3313 9.52666 42.8203 11.3906 42.8203H15.7148C17.5789 42.8203 19.0898 41.3093 19.0898 39.4453V30.1641M4.85156 27H19.8808" stroke="#FAFAFA" stroke-linecap="round" stroke-linejoin="round"/>
<g id="Group">
<path id="Vector_2" d="M38.8125 27C38.8125 33.5239 33.5239 38.8125 27 38.8125C20.4761 38.8125 15.1875 33.5239 15.1875 27C15.1875 20.4761 20.4761 15.1875 27 15.1875C33.5239 15.1875 38.8125 20.4761 38.8125 27Z" fill="#55C8FF"/>
<path id="Vector_3" d="M49.1484 4.85156C49.1484 6.59902 47.7318 8.01562 45.9844 8.01562C44.237 8.01562 42.8203 6.59902 42.8203 4.85156C42.8203 3.10411 44.237 1.6875 45.9844 1.6875C47.7318 1.6875 49.1484 3.10411 49.1484 4.85156Z" fill="#55C8FF"/>
<path id="Vector_4" d="M4.85156 4.85156C4.85156 6.59902 6.26817 8.01562 8.01562 8.01562C9.76308 8.01562 11.1797 6.59902 11.1797 4.85156C11.1797 3.10411 9.76308 1.6875 8.01562 1.6875C6.26817 1.6875 4.85156 3.10411 4.85156 4.85156Z" fill="#55C8FF"/>
<path id="Vector_5" d="M49.1484 49.1484C49.1484 50.8958 47.7318 52.3125 45.9844 52.3125C44.237 52.3125 42.8203 50.8958 42.8203 49.1484C42.8203 47.401 44.237 45.9844 45.9844 45.9844C47.7318 45.9844 49.1484 47.401 49.1484 49.1484Z" fill="#55C8FF"/>
<path id="Vector_6" d="M4.85156 49.1484C4.85156 50.8958 6.26817 52.3125 8.01562 52.3125C9.76308 52.3125 11.1797 50.8958 11.1797 49.1484C11.1797 47.401 9.76308 45.9844 8.01562 45.9844C6.26817 45.9844 4.85156 47.401 4.85156 49.1484Z" fill="#55C8FF"/>
<path id="Vector_7" d="M52.3125 27C52.3125 28.7474 50.8958 30.1641 49.1484 30.1641C47.401 30.1641 45.9844 28.7474 45.9844 27C45.9844 25.2526 47.401 23.8359 49.1484 23.8359C50.8958 23.8359 52.3125 25.2526 52.3125 27Z" fill="#55C8FF"/>
<path id="Vector_8" d="M1.6875 27C1.6875 28.7474 3.10411 30.1641 4.85156 30.1641C6.59902 30.1641 8.01562 28.7474 8.01562 27C8.01562 25.2526 6.59902 23.8359 4.85156 23.8359C3.10411 23.8359 1.6875 25.2526 1.6875 27Z" fill="#55C8FF"/>
</g>
<path id="Vector_9" d="M27 33.75C30.7279 33.75 33.75 30.7279 33.75 27C33.75 23.2721 30.7279 20.25 27 20.25C23.2721 20.25 20.25 23.2721 20.25 27C20.25 30.7279 23.2721 33.75 27 33.75Z" stroke="#FAFAFA"/>
</g>
</svg>
