<svg width="54" height="54" viewBox="0 0 54 54" fill="none" xmlns="http://www.w3.org/2000/svg">
<g id="60f58d32ae77d64b46c57b51_manage">
<g id="Group 1887">
<path id="Vector" d="M40.8493 19.3333V33.5036C40.8493 34.7602 39.8307 35.7788 38.5741 35.7788H21.6826V19.3333H40.8493Z" fill="#55C8FF"/>
<path id="Vector_2" d="M11.667 33.5036V19.3333H20.1497V35.7788H13.9423C12.6857 35.7788 11.667 34.7602 11.667 33.5036Z" fill="#55C8FF"/>
<g id="Group">
<path id="Vector_3" d="M28.5332 23.1667C28.5332 23.59 28.8765 23.9334 29.2999 23.9334H35.4332C35.8566 23.9334 36.1999 23.59 36.1999 23.1667C36.1999 22.7433 35.8566 22.4 35.4332 22.4H29.2999C28.8765 22.4 28.5332 22.7433 28.5332 23.1667Z" fill="#FAFAFA"/>
<path id="Vector_4" d="M12.2088 7.60878C12.5082 7.30938 12.5082 6.82396 12.2088 6.52456C11.9094 6.22514 11.424 6.22514 11.1246 6.52456L12.2088 7.60878ZM7.29122 10.3579C6.99181 10.6573 6.99181 11.1427 7.29122 11.4421C7.59062 11.7415 8.07604 11.7415 8.37544 11.4421L7.29122 10.3579ZM8.37544 6.52456C8.07604 6.22514 7.59062 6.22514 7.29122 6.52456C6.99181 6.82396 6.99181 7.30938 7.29122 7.60878L8.37544 6.52456ZM11.1246 11.4421C11.424 11.7415 11.9094 11.7415 12.2088 11.4421C12.5082 11.1427 12.5082 10.6573 12.2088 10.3579L11.1246 11.4421ZM10.1333 42.3333C9.70992 42.3333 9.36667 42.6766 9.36667 43.1C9.36667 43.5234 9.70992 43.8667 10.1333 43.8667V42.3333ZM43.8667 43.1L44.4089 43.6422C44.7082 43.3427 44.7082 42.8573 44.4089 42.5578L43.8667 43.1ZM40.5755 38.7245C40.2761 38.4252 39.7906 38.4252 39.4911 38.7245C39.1918 39.0239 39.1918 39.5094 39.4911 39.8089L40.5755 38.7245ZM39.4911 46.3911C39.1918 46.6906 39.1918 47.1761 39.4911 47.4755C39.7906 47.7748 40.2761 47.7748 40.5755 47.4755L39.4911 46.3911ZM7.83333 50H46.1667V48.4667H7.83333V50ZM46.1667 4H7.83333V5.53333H46.1667V4ZM4 7.83333V13.2H5.53333V7.83333H4ZM4 13.2V46.1667H5.53333V13.2H4ZM50 46.1667V13.2H48.4667V46.1667H50ZM50 13.2V7.83333H48.4667V13.2H50ZM4.76667 13.9667H49.2333V12.4333H4.76667V13.9667ZM11.1246 6.52456L9.20789 8.44122L10.2921 9.52544L12.2088 7.60878L11.1246 6.52456ZM9.20789 8.44122L7.29122 10.3579L8.37544 11.4421L10.2921 9.52544L9.20789 8.44122ZM7.29122 7.60878L9.20789 9.52544L10.2921 8.44122L8.37544 6.52456L7.29122 7.60878ZM9.20789 9.52544L11.1246 11.4421L12.2088 10.3579L10.2921 8.44122L9.20789 9.52544ZM46.1667 5.53333C47.4369 5.53333 48.4667 6.56307 48.4667 7.83333H50C50 5.71624 48.2837 4 46.1667 4V5.53333ZM46.1667 50C48.2837 50 50 48.2837 50 46.1667H48.4667C48.4667 47.4369 47.4369 48.4667 46.1667 48.4667V50ZM7.83333 48.4667C6.56307 48.4667 5.53333 47.4369 5.53333 46.1667H4C4 48.2837 5.71624 50 7.83333 50V48.4667ZM7.83333 4C5.71624 4 4 5.71624 4 7.83333H5.53333C5.53333 6.56307 6.56307 5.53333 7.83333 5.53333V4ZM10.1333 43.8667H43.8667V42.3333H10.1333V43.8667ZM44.4089 42.5578L40.5755 38.7245L39.4911 39.8089L43.3245 43.6422L44.4089 42.5578ZM43.3245 42.5578L39.4911 46.3911L40.5755 47.4755L44.4089 43.6422L43.3245 42.5578Z" fill="#FAFAFA"/>
</g>
</g>
</g>
</svg>
