<svg width="54" height="54" viewBox="0 0 54 54" fill="none" xmlns="http://www.w3.org/2000/svg">
<g id="60f5a6c7ed043f2f41ed1757_locations">
<path id="Vector" d="M39.7055 27H52.4114M1.58789 27H14.2938M26.9997 39.7059V52.4118M26.9997 1.58826V14.2941M47.6467 27C47.6467 38.4031 38.4027 47.6471 26.9997 47.6471C15.5966 47.6471 6.3526 38.4031 6.3526 27C6.3526 15.597 15.5966 6.35296 26.9997 6.35296C38.4027 6.35296 47.6467 15.597 47.6467 27ZM42.882 27C42.882 35.7715 35.7712 42.8824 26.9997 42.8824C18.2281 42.8824 11.1173 35.7715 11.1173 27C11.1173 18.2285 18.2281 11.1177 26.9997 11.1177C35.7712 11.1177 42.882 18.2285 42.882 27Z" stroke="#FAFAFA" stroke-linecap="round" stroke-linejoin="round"/>
<path id="Vector_2" d="M26.9996 34.1471C30.9468 34.1471 34.1467 30.9472 34.1467 27C34.1467 23.0528 30.9468 19.853 26.9996 19.853C23.0524 19.853 19.8525 23.0528 19.8525 27C19.8525 30.9472 23.0524 34.1471 26.9996 34.1471Z" fill="#55C8FF" stroke="#55C8FF"/>
</g>
</svg>
