<svg width="54" height="54" viewBox="0 0 54 54" fill="none" xmlns="http://www.w3.org/2000/svg">
<g id="60f5a6dd273c1ab5632e6b11_storage">
<path id="Vector" d="M23.625 13.5C23.625 20.0239 18.3364 25.3125 11.8125 25.3125C5.28864 25.3125 0 20.0239 0 13.5C0 6.97614 5.28864 1.6875 11.8125 1.6875C18.3364 1.6875 23.625 6.97614 23.625 13.5Z" fill="#55C8FF"/>
<path id="Vector_2" d="M54 40.5C54 47.0239 48.7114 52.3125 42.1875 52.3125C35.6636 52.3125 30.375 47.0239 30.375 40.5C30.375 33.9761 35.6636 28.6875 42.1875 28.6875C48.7114 28.6875 54 33.9761 54 40.5Z" fill="#55C8FF"/>
<path id="Vector_3" d="M27.0001 49.7812C27.466 49.7812 27.8438 49.4034 27.8438 48.9375C27.8438 48.4716 27.466 48.0938 27.0001 48.0938V49.7812ZM5.06259 27L5.6592 26.4033C5.48046 26.2246 5.231 26.1355 4.97945 26.1603C4.72789 26.1853 4.50077 26.3216 4.36054 26.5319L5.06259 27ZM27.0001 4.21875C26.5342 4.21875 26.1563 4.59651 26.1563 5.0625C26.1563 5.52849 26.5342 5.90625 27.0001 5.90625V4.21875ZM48.9376 27L48.3409 27.5967C48.5198 27.7754 48.7692 27.8645 49.0208 27.8397C49.2722 27.8147 49.4994 27.6784 49.6396 27.4681L48.9376 27ZM0.985547 31.5944C0.727062 31.9822 0.831834 32.506 1.21956 32.7645C1.60729 33.023 2.13115 32.9182 2.38964 32.5306L0.985547 31.5944ZM8.68472 31.8154C9.01423 32.1448 9.54845 32.1448 9.87795 31.8154C10.2075 31.4859 10.2075 30.9516 9.87795 30.6221L8.68472 31.8154ZM45.3155 22.1846C44.986 21.8552 44.4517 21.8552 44.1221 22.1846C43.7927 22.5141 43.7927 23.0484 44.1221 23.3779L45.3155 22.1846ZM53.0146 22.4056C53.2731 22.0178 53.1683 21.494 52.7807 21.2355C52.3929 20.977 51.8691 21.0818 51.6106 21.4694L53.0146 22.4056ZM17.7188 13.5C17.7188 16.7619 15.0745 19.4062 11.8126 19.4062V21.0938C16.0065 21.0938 19.4063 17.6939 19.4063 13.5H17.7188ZM11.8126 19.4062C8.55065 19.4062 5.90634 16.7619 5.90634 13.5H4.21884C4.21884 17.6939 7.61868 21.0938 11.8126 21.0938V19.4062ZM5.90634 13.5C5.90634 10.2381 8.55065 7.59375 11.8126 7.59375V5.90625C7.61868 5.90625 4.21884 9.30609 4.21884 13.5H5.90634ZM11.8126 7.59375C15.0745 7.59375 17.7188 10.2381 17.7188 13.5H19.4063C19.4063 9.30609 16.0065 5.90625 11.8126 5.90625V7.59375ZM48.0938 40.5C48.0938 43.7619 45.4495 46.4062 42.1876 46.4062V48.0938C46.3815 48.0938 49.7813 44.6939 49.7813 40.5H48.0938ZM42.1876 46.4062C38.9257 46.4062 36.2813 43.7619 36.2813 40.5H34.5938C34.5938 44.6939 37.9936 48.0938 42.1876 48.0938V46.4062ZM36.2813 40.5C36.2813 37.2381 38.9257 34.5938 42.1876 34.5938V32.9062C37.9936 32.9062 34.5938 36.3061 34.5938 40.5H36.2813ZM42.1876 34.5938C45.4495 34.5938 48.0938 37.2381 48.0938 40.5H49.7813C49.7813 36.3061 46.3815 32.9062 42.1876 32.9062V34.5938ZM27.0001 48.0938C15.3503 48.0938 5.90634 38.6498 5.90634 27H4.21884C4.21884 39.5817 14.4184 49.7812 27.0001 49.7812V48.0938ZM27.0001 5.90625C38.6499 5.90625 48.0938 15.3502 48.0938 27H49.7813C49.7813 14.4183 39.5818 4.21875 27.0001 4.21875V5.90625ZM4.36054 26.5319L0.985547 31.5944L2.38964 32.5306L5.76464 27.4681L4.36054 26.5319ZM4.46597 27.5967L8.68472 31.8154L9.87795 30.6221L5.6592 26.4033L4.46597 27.5967ZM49.5343 26.4033L45.3155 22.1846L44.1221 23.3779L48.3409 27.5967L49.5343 26.4033ZM49.6396 27.4681L53.0146 22.4056L51.6106 21.4694L48.2356 26.5319L49.6396 27.4681Z" fill="#FAFAFA"/>
</g>
</svg>
