<svg width="37" height="36" viewBox="0 0 37 36" fill="none" xmlns="http://www.w3.org/2000/svg">
<g id="Logomark">
<path id="Isometric square" d="M11.0948 16.6686C11.7819 14.2395 14.4173 11.7427 16.9812 11.0917L32.9657 7.03335C35.5296 6.38239 37.051 7.82381 36.3639 10.2529L32.0803 25.3966C31.3932 27.8257 28.7577 30.3225 26.1938 30.9735L10.2093 35.0319C7.64544 35.6828 6.12399 34.2414 6.81109 31.8123L11.0948 16.6686Z" fill="#98A2B3"/>
<path id="Isometric square_2" d="M4.68656 10.5974C5.37366 8.16835 8.00911 5.67151 10.573 5.02055L26.5575 0.962177C29.1214 0.311218 30.6429 1.75264 29.9558 4.18169L25.6721 19.3255C24.985 21.7545 22.3495 24.2513 19.7856 24.9023L3.80113 28.9607C1.23724 29.6116 -0.28421 28.1702 0.402888 25.7412L4.68656 10.5974Z" fill="#667085"/>
</g>
</svg>
