<svg width="37" height="36" viewBox="0 0 37 36" fill="none" xmlns="http://www.w3.org/2000/svg">
<g id="Logomark">
<path id="Ring" fill-rule="evenodd" clip-rule="evenodd" d="M18.3529 27.8695C24.0967 27.8695 28.7529 23.4508 28.7529 18C28.7529 12.5493 24.0967 8.1306 18.3529 8.1306C12.6092 8.1306 7.95294 12.5493 7.95294 18C7.95294 23.4508 12.6092 27.8695 18.3529 27.8695ZM18.3529 35.4167C28.489 35.4167 36.7059 27.619 36.7059 18C36.7059 8.38108 28.489 0.583374 18.3529 0.583374C8.21689 0.583374 0 8.38108 0 18C0 27.619 8.21689 35.4167 18.3529 35.4167Z" fill="#667085"/>
<path id="Descender" d="M18.5628 18.3814C20.474 16.5676 23.5728 16.5676 25.4841 18.3814L35.0009 27.4127C36.9122 29.2265 36.9122 32.1672 35.0009 33.981C33.0897 35.7947 29.9909 35.7947 28.0796 33.981L18.5628 24.9497C16.6515 23.1359 16.6515 20.1952 18.5628 18.3814Z" fill="#98A2B3"/>
<path id="Intersect" d="M21.2354 27.4856L27.2796 33.2215C30.1787 31.6871 32.594 29.4284 34.2538 26.7034L28.2591 21.0145C27.2061 24.1332 24.5631 26.5766 21.2354 27.4856Z" fill="#667085"/>
</g>
</svg>
