<svg width="54" height="54" viewBox="0 0 54 54" fill="none" xmlns="http://www.w3.org/2000/svg">
<g clip-path="url(#clip0_76_371)">
<path d="M48.0938 3H5.90625C4.04229 3 2.53125 4.51514 2.53125 6.38415V38.7031C2.53125 40.5722 4.04229 42.0872 5.90625 42.0872H15.8827C17.0275 42.0872 18.0944 42.6692 18.7162 43.633L24.1665 52.0789C25.4964 54.1399 28.5037 54.1399 29.8336 52.0789L35.2839 43.633C35.9058 42.6692 36.9726 42.0872 38.1174 42.0872H48.0938C49.9578 42.0872 51.4688 40.5722 51.4688 38.7031V6.38415C51.4688 4.51514 49.9578 3 48.0938 3Z" stroke="#FAFAFA" stroke-width="1.5"/>
<path d="M16.7531 30.6535C15.0306 28.7899 14 26.2894 14 23.2962C14 16.2355 19.6898 12 26.7067 12C33.7236 12 39.4134 16.2355 39.4134 23.2962C39.4134 30.3569 33.7236 34.5925 26.7067 34.5925C24.8995 34.5925 23.1911 34.3102 21.638 33.7737C19.7461 35.7926 16.6542 36.0608 14.6494 35.9902C14.0423 35.9761 13.774 35.1996 14.2399 34.8043C15.7788 33.5633 16.5413 32.0103 16.7531 30.6535Z" fill="#55C8FF"/>
<path d="M32.3538 21.53H21.0589C20.4744 21.53 20 21.0556 20 20.4711C20 19.8866 20.4744 19.4122 21.0589 19.4122H32.3538C32.9383 19.4122 33.4126 19.8866 33.4126 20.4711C33.4126 21.0556 32.9383 21.53 32.3538 21.53ZM29.1771 26.1186C29.1771 25.534 28.7027 25.0597 28.1182 25.0597H21.0589C20.4744 25.0597 20 25.534 20 26.1186C20 26.7031 20.4744 27.1774 21.0589 27.1774H28.1182C28.7027 27.1774 29.1771 26.7031 29.1771 26.1186Z" fill="white"/>
</g>
<defs>
<clipPath id="clip0_76_371">
<rect width="54" height="54" fill="white"/>
</clipPath>
</defs>
</svg>
