<svg width="54" height="54" viewBox="0 0 54 54" fill="none" xmlns="http://www.w3.org/2000/svg">
<g id="6113eae4c5e0d779f456e218_database">
<g id="Group 1889">
<path id="Vector" d="M11.8281 30.0345C11.8281 29.1965 12.5074 28.5172 13.3454 28.5172H40.6557C41.4937 28.5172 42.173 29.1965 42.173 30.0345C42.173 30.8724 41.4937 31.5517 40.6557 31.5517H13.3454C12.5074 31.5517 11.8281 30.8724 11.8281 30.0345Z" fill="#55C8FF"/>
<path id="Vector_2" d="M11.8281 34.5862C11.8281 33.7482 12.5074 33.069 13.3454 33.069H40.6557C41.4937 33.069 42.173 33.7482 42.173 34.5862C42.173 35.4242 41.4937 36.1035 40.6557 36.1035H13.3454C12.5074 36.1035 11.8281 35.4242 11.8281 34.5862Z" fill="#55C8FF"/>
<path id="Vector_3" d="M44.4483 45.2237V24.2353C44.4483 22.7176 43.236 21.4874 41.7406 21.4874H38.3793M44.4483 45.2237H9.55172M44.4483 45.2237H48.323C48.697 45.2237 49 45.5313 49 45.9107V46.2521C49 47.7697 47.7877 49 46.2923 49H7.7077C6.21228 49 5 47.7697 5 46.2521V45.9107C5 45.5313 5.30307 45.2237 5.67692 45.2237H9.55172M38.3793 21.4874L38.232 19.2008C38.1573 18.0407 37.1946 17.1379 36.0321 17.1379H35.3448C34.5069 17.1379 33.8276 16.4469 33.8276 15.6089C33.8276 14.7839 34.4964 14.1034 35.3215 14.1034C36.1465 14.1034 36.8153 13.4346 36.8153 12.6095V10.4958M38.3793 21.4874H23.2069M9.55172 45.2237V27.6702V26.9832M9.55172 26.9832H8.03448C6.35858 26.9832 5 25.6246 5 23.9487V18.8303C5 17.8956 5.75766 17.1379 6.6923 17.1379C7.62694 17.1379 8.38462 16.3803 8.38462 15.4456V10.4958M9.55172 26.9832V24.2353C9.55172 22.7176 10.764 21.4874 12.2594 21.4874H15.6207M27.3385 10.4958C28.8339 10.4958 30.0462 9.26551 30.0462 7.74789C30.0462 6.23027 28.8339 5 27.3385 5C25.8431 5 24.6308 6.23027 24.6308 7.74789C24.6308 9.26551 25.8431 10.4958 27.3385 10.4958ZM27.3385 10.4958V15.0721C27.3385 16.2131 26.4136 17.1379 25.2726 17.1379C24.1318 17.1379 23.2069 18.0628 23.2069 19.2037V21.4874M23.2069 21.4874H15.6207M46.2923 10.4958C47.7877 10.4958 49 9.26551 49 7.74789C49 6.23027 47.7877 5 46.2923 5C44.7969 5 43.5847 6.23027 43.5847 7.74789C43.5847 9.26551 44.7969 10.4958 46.2923 10.4958ZM46.2923 10.4958V14.7181C46.2923 15.2166 46.6964 15.6207 47.1949 15.6207C48.1918 15.6207 49 16.4289 49 17.4258V32.3103C49 33.9863 47.6415 35.3448 45.9655 35.3448H44.6677M36.8153 10.4958C38.3107 10.4958 39.523 9.26551 39.523 7.74789C39.523 6.23027 38.3107 5 36.8153 5C35.3199 5 34.1077 6.23027 34.1077 7.74789C34.1077 9.26551 35.3199 10.4958 36.8153 10.4958ZM17.8615 10.4958C19.3569 10.4958 20.5692 9.26551 20.5692 7.74789C20.5692 6.23027 19.3569 5 17.8615 5C16.3661 5 15.1539 6.23027 15.1539 7.74789C15.1539 9.26551 16.3661 10.4958 17.8615 10.4958ZM17.8615 10.4958V12.983C17.8615 13.6018 17.3599 14.1034 16.7411 14.1034C16.1223 14.1034 15.6207 14.6051 15.6207 15.2239V21.4874M8.38462 10.4958C9.88004 10.4958 11.0923 9.26551 11.0923 7.74789C11.0923 6.23027 9.88004 5 8.38462 5C6.88919 5 5.67692 6.23027 5.67692 7.74789C5.67692 9.26551 6.88919 10.4958 8.38462 10.4958Z" stroke="#FAFAFA" stroke-width="1.5"/>
</g>
</g>
</svg>
